#!OML:ASF C:\Vicon Data\Big\jianyuan-13\jianyuan\Session 1\Capture.male.ASF
:FULLY-SPECIFIED
:DEGREES
1
root -7.733500 17.589200 -23.999400 8.430818 9.678970 1.829961
lowerback -13.586400 0.152463 -2.731770 
upperback 1.430480 0.701961 -0.459239 
thorax 9.162670 0.212544 1.201690 
lowerneck -2.359870 -3.569990 2.742550 
upperneck 20.186400 -4.814490 -1.831320 
head 6.396020 -2.263860 -1.334540 
rclavicle 0.000000 0.000000 
rhumerus -39.212300 -18.451100 -76.944500 
rradius 38.082800 
rwrist 23.884700 
rhand -18.487900 -18.308600 
rfingers 0.000000 
rthumb 7.799470 -48.144700 
lclavicle 0.000000 0.000000 
lhumerus -38.051100 28.034300 73.953300 
lradius 29.041900 
lwrist -49.538600 
lhand -18.952700 1.369050 
lfingers 0.000000 
lthumb 7.350760 31.221400 
rfemur -37.235500 4.772780 15.100500 
rtibia 31.308200 
rfoot -3.716540 -8.758050 
rtoes -33.573600 
lfemur 2.983580 -2.831100 -26.406100 
ltibia 17.414100 
lfoot -22.088100 1.141180 
ltoes -36.575600 
2
root -7.736472 17.586457 -23.962438 8.433386 9.704956 1.811970
lowerback -13.554165 0.134082 -2.666114 
upperback 1.462999 0.661745 -0.411788 
thorax 9.181218 0.194617 1.206814 
lowerneck -2.369354 -3.551991 2.651047 
upperneck 20.077153 -4.784900 -1.810392 
head 6.366254 -2.255767 -1.309300 
rclavicle 0.000000 0.000000 
rhumerus -39.210242 -18.481180 -76.901781 
rradius 38.153737 
rwrist 24.022459 
rhand -18.413925 -18.421276 
rfingers 0.000000 
rthumb 7.870858 -48.254731 
lclavicle 0.000000 0.000000 
lhumerus -38.124389 28.252794 73.878640 
lradius 29.062084 
lwrist -49.752097 
lhand -18.880587 1.375879 
lfingers 0.000000 
lthumb 7.420404 31.225711 
rfemur -37.063546 4.790779 15.147530 
rtibia 31.241182 
rfoot -3.951250 -8.740453 
rtoes -33.451028 
lfemur 3.032717 -2.858172 -26.351133 
ltibia 17.555680 
lfoot -22.058118 1.123054 
ltoes -36.691314 
3
root -7.739544 17.584988 -23.944564 8.517656 9.670991 1.824276
lowerback -13.598586 0.136514 -2.665504 
upperback 1.448041 0.666141 -0.412516 
thorax 9.190288 0.196766 1.206976 
lowerneck -2.373174 -3.553375 2.717170 
upperneck 20.029955 -4.782600 -1.865489 
head 6.348636 -2.254626 -1.336754 
rclavicle 0.000000 0.000000 
rhumerus -39.214247 -18.553759 -76.888993 
rradius 38.119762 
rwrist 24.228140 
rhand -18.400211 -18.459320 
rfingers 0.000000 
rthumb 7.884067 -48.292297 
lclavicle 0.000000 0.000000 
lhumerus -38.120911 28.238663 73.856251 
lradius 29.013320 
lwrist -49.815281 
lhand -19.060103 1.504143 
lfingers 0.000000 
lthumb 7.247120 31.359928 
rfemur -37.076943 4.787606 15.169584 
rtibia 31.219234 
rfoot -4.051731 -8.690213 
rtoes -33.575475 
lfemur 2.963301 -2.846710 -26.347412 
ltibia 17.636677 
lfoot -22.015850 1.137740 
ltoes -36.769188 
4
root -7.742683 17.583516 -23.926715 8.605496 9.635007 1.837498
lowerback -13.645611 0.139446 -2.666279 
upperback 1.431739 0.671591 -0.414297 
thorax 9.199349 0.199394 1.207035 
lowerneck -2.376954 -3.555206 2.788106 
upperneck 19.983077 -4.780838 -1.923407 
head 6.330901 -2.253610 -1.365931 
rclavicle 0.000000 0.000000 
rhumerus -39.218469 -18.628813 -76.876574 
rradius 38.082799 
rwrist 24.439705 
rhand -18.387497 -18.496578 
rfingers 0.000000 
rthumb 7.896310 -48.329112 
lclavicle 0.000000 0.000000 
lhumerus -38.115708 28.219225 73.834506 
lradius 28.962024 
lwrist -49.876591 
lhand -19.248891 1.637778 
lfingers 0.000000 
lthumb 7.064885 31.499826 
rfemur -37.094614 4.783910 15.191575 
rtibia 31.197783 
rfoot -4.151485 -8.638191 
rtoes -33.707912 
lfemur 2.889842 -2.834173 -26.344712 
ltibia 17.718112 
lfoot -21.972408 1.153448 
ltoes -36.847924 
5
root -7.745452 17.582527 -23.909270 8.662893 9.612201 1.845624
lowerback -13.661302 0.148172 -2.654818 
upperback 1.419532 0.681396 -0.412375 
thorax 9.194701 0.204801 1.204806 
lowerneck -2.397810 -3.564388 2.811149 
upperneck 19.967180 -4.792143 -1.945071 
head 6.327956 -2.259225 -1.377420 
rclavicle 0.000000 0.000000 
rhumerus -39.233027 -18.588221 -76.892708 
rradius 38.128256 
rwrist 24.120821 
rhand -18.466322 -18.400999 
rfingers 0.000000 
rthumb 7.820224 -48.236336 
lclavicle 0.000000 0.000000 
lhumerus -38.135899 28.199894 73.830531 
lradius 28.953461 
lwrist -49.920111 
lhand -19.313540 1.642853 
lfingers 0.000000 
lthumb 7.002474 31.507003 
rfemur -37.072608 4.826516 15.192733 
rtibia 31.170264 
rfoot -4.294920 -8.627612 
rtoes -33.572927 
lfemur 2.833952 -2.826024 -26.333458 
ltibia 17.820033 
lfoot -21.944255 1.162239 
ltoes -36.934053 
6
root -7.748190 17.581580 -23.891859 8.717699 9.590516 1.853317
lowerback -13.674325 0.157392 -2.642316 
upperback 1.407674 0.691571 -0.410137 
thorax 9.188885 0.210445 1.202381 
lowerneck -2.420120 -3.574196 2.830115 
upperneck 19.953920 -4.804560 -1.963649 
head 6.326270 -2.265405 -1.387403 
rclavicle 0.000000 0.000000 
rhumerus -39.248466 -18.537786 -76.911272 
rradius 38.180727 
rwrist 23.756788 
rhand -18.552938 -18.294114 
rfingers 0.000000 
rthumb 7.736620 -48.132529 
lclavicle 0.000000 0.000000 
lhumerus -38.158252 28.180572 73.828068 
lradius 28.948536 
lwrist -49.962116 
lhand -19.367621 1.636985 
lfingers 0.000000 
lthumb 6.950263 31.502883 
rfemur -37.047224 4.873063 15.192117 
rtibia 31.142228 
rfoot -4.442072 -8.620560 
rtoes -33.415181 
lfemur 2.779558 -2.818248 -26.321477 
ltibia 17.923698 
lfoot -21.917403 1.170441 
ltoes -37.020811 
